<svg width="15" height="17" viewBox="0 0 15 17" fill="none" xmlns="http://www.w3.org/2000/svg">
<path d="M12.7486 13.4702C14.4893 12.7372 14.5001 11.2218 14.5001 11.2218V9.94458H10.409C10.409 9.94458 10.409 10.6036 10.409 11.6484C10.409 12.5613 9.66941 12.805 9.00497 12.4403C8.80241 12.3289 8.57502 12.1866 8.3407 12.0247V12.0274C8.3407 12.0274 10.9867 14.2153 12.7486 13.4702Z" fill="#176D3B"/>
<path d="M4.26737 8.29053C3.23123 9.59711 2.61194 10.839 2.18039 11.8453C3.27527 13.0564 4.69355 14.3674 6.3967 15.4313C10.1979 17.8053 14.4993 16.4422 14.4993 11.702V11.222C14.4993 11.222 14.515 12.6849 12.7533 13.3641C10.9072 14.0779 8.33995 12.0276 8.33995 12.0276V12.0249C7.09717 11.1781 5.49152 9.70621 4.26737 8.29053Z" fill="#1B8748"/>
<path d="M6.39748 1.14178C6.36173 1.16307 6.327 1.18753 6.2908 1.21101C7.62283 0.438581 10.4287 0.717577 10.4287 3.7541V6.62977H14.5001V4.87353C14.5001 0.130103 10.1987 -1.22957 6.39748 1.14178Z" fill="#49B75D"/>
<path d="M6.29052 1.21125C3.49935 2.98313 1.48723 5.41895 0.416232 6.91833V6.9199C0.149691 7.30853 0 7.77835 0 8.28706C0 8.79626 0.149691 9.26509 0.416232 9.65394V9.65592C0.852177 10.267 1.4431 11.0336 2.18089 11.8455C4.16621 7.08151 8.17105 4.58806 9.00472 4.13585C9.66917 3.77293 10.4088 4.0112 10.4088 4.927C10.4088 4.99403 10.4088 5.05546 10.4088 5.1193L10.4284 6.51554V3.75434C10.4284 0.717821 7.62255 0.438825 6.29052 1.21125Z" fill="#1FA758"/>
</svg>
