<svg width="180" height="180" viewBox="0 0 180 180" fill="none" xmlns="http://www.w3.org/2000/svg">
<circle cx="90" cy="90" r="89" fill="#F3F6F7" stroke="#FFA735" stroke-width="2"/>
<g clip-path="url(#clip0)">
<path d="M138.933 78.0236L120.609 59.6987C119.853 58.9437 118.629 58.9435 117.873 59.6987C117.118 60.454 117.118 61.6787 117.873 62.4344L134.83 79.3913L124.916 89.3054C124.612 89.609 124.118 89.609 123.815 89.3054L104.237 69.7279C103.933 69.4243 103.933 68.9303 104.237 68.6265L110.891 61.9724C111.646 61.2172 111.646 59.9924 110.891 59.237C110.135 58.4817 108.911 58.4817 108.155 59.237L101.501 65.8907C100.123 67.2691 99.7962 69.3044 100.515 70.9977L98.2648 73.248H89.5873H88.9034H82.5313L79.6924 70.4091C79.8014 70.0112 79.859 69.5968 79.859 69.1732C79.859 67.9318 79.3754 66.7647 78.4978 65.887L72.0239 59.4131C71.2684 58.6579 70.0441 58.6579 69.2882 59.4131C68.533 60.1684 68.533 61.3931 69.2882 62.1488L75.7623 68.6227C75.9607 68.821 75.9905 69.0529 75.9905 69.1732C75.9905 69.2934 75.9609 69.5253 75.7621 69.7238L75.2234 70.2625L56.1785 89.3029C56.1723 89.3091 56.167 89.3158 56.1611 89.322C55.9681 89.5005 55.7496 89.5295 55.6338 89.5295C55.5133 89.5295 55.2815 89.4999 55.0831 89.3015L45.1693 79.3874L62.3544 62.2025C63.1096 61.4473 63.1096 60.2225 62.3544 59.4671C61.5991 58.7116 60.3748 58.7118 59.6187 59.4671L41.0662 78.0198C40.311 78.775 40.311 79.9998 41.0662 80.7552L52.348 92.0372C53.2543 92.9433 54.4442 93.3961 55.6342 93.3961C56.1806 93.3961 56.7259 93.2959 57.2446 93.1047L63.5952 99.4552C63.1021 100.38 62.8217 101.435 62.8217 102.554C62.8217 106.199 65.7875 109.165 69.4329 109.165C69.441 109.165 69.4491 109.164 69.4572 109.164C69.4572 109.165 69.4572 109.165 69.4572 109.166C69.4572 112.803 72.4097 115.763 76.0439 115.776C76.0439 115.779 76.0437 115.782 76.0437 115.785C76.0437 119.43 79.0094 122.396 82.6548 122.396C83.7763 122.396 84.833 122.114 85.7592 121.619L88.1234 123.984C89.2318 125.092 90.7056 125.702 92.2729 125.702C93.8405 125.702 95.3143 125.092 96.4224 123.984C97.4718 122.934 98.0749 121.557 98.136 120.083C99.5655 120.012 100.974 119.432 102.063 118.343C103.214 117.192 103.836 115.662 103.813 114.034C103.813 114.031 103.813 114.028 103.813 114.024C105.496 113.92 107.044 113.182 108.189 111.935C109.34 110.681 109.909 109.101 109.904 107.524C111.522 107.478 113.037 106.826 114.186 105.676C115.385 104.477 116.043 102.883 116.037 101.187C116.034 100.188 115.8 99.2274 115.362 98.362L121.707 92.5612C122.502 93.1173 123.433 93.3994 124.365 93.3994C125.555 93.3994 126.745 92.9464 127.651 92.0407L138.933 80.7587C139.689 80.0036 139.689 78.7789 138.933 78.0236ZM69.4331 105.297C67.9206 105.297 66.6903 104.066 66.6903 102.554C66.6903 101.042 67.9206 99.8114 69.4331 99.8114C70.9455 99.8114 72.1759 101.042 72.1759 102.554C72.1757 104.066 70.9453 105.297 69.4331 105.297ZM78.1113 110.99C78.0326 111.064 77.9558 111.141 77.8808 111.219C77.3968 111.647 76.7633 111.909 76.0684 111.909C74.5561 111.909 73.3258 110.678 73.3258 109.166C73.3258 107.653 74.556 106.423 76.0684 106.423C77.5809 106.423 78.8112 107.653 78.8112 109.166C78.811 109.866 78.5448 110.504 78.1113 110.99ZM84.6205 117.694C84.6116 117.703 84.6021 117.71 84.5934 117.719C84.5838 117.728 84.5759 117.739 84.5666 117.748C84.0721 118.23 83.3981 118.528 82.6552 118.528C81.1426 118.528 79.9122 117.297 79.9122 115.785C79.9122 115.084 80.1783 114.447 80.612 113.961C80.6907 113.887 80.7674 113.81 80.8425 113.732C81.3262 113.304 81.9599 113.043 82.6548 113.043C84.1671 113.043 85.3976 114.273 85.3976 115.785C85.3976 116.527 85.1006 117.2 84.6205 117.694ZM111.451 102.941C110.988 103.404 110.373 103.659 109.718 103.659C109.063 103.659 108.448 103.404 107.985 102.941L103.967 98.9227C103.211 98.1674 101.987 98.1674 101.231 98.9227C100.476 99.678 100.476 100.903 101.231 101.658L105.249 105.677C105.249 105.677 105.249 105.677 105.249 105.677L105.262 105.689C106.259 106.686 106.293 108.28 105.339 109.319C104.86 109.841 104.206 110.142 103.498 110.167C102.791 110.193 102.116 109.937 101.602 109.45L97.7328 105.788C96.9569 105.053 95.7327 105.087 94.9983 105.863C94.264 106.638 94.2974 107.863 95.0732 108.597L99.2859 112.585C99.703 112.98 99.9369 113.514 99.9449 114.088C99.9528 114.662 99.7335 115.202 99.3275 115.608C98.5055 116.43 97.1671 116.43 96.3451 115.608L94.392 113.655C93.6365 112.9 92.4121 112.9 91.6563 113.655C91.2787 114.033 91.0898 114.528 91.0898 115.023C91.0898 115.518 91.2787 116.013 91.6563 116.39L93.6866 118.421C94.0644 118.798 94.2725 119.301 94.2725 119.835C94.2725 120.369 94.0644 120.871 93.6866 121.249C93.3088 121.626 92.8066 121.834 92.2725 121.834C91.7383 121.834 91.2363 121.626 90.8585 121.248L88.4927 118.883C88.9854 117.958 89.2656 116.904 89.2656 115.785C89.2656 112.148 86.313 109.188 82.6788 109.175C82.6788 109.172 82.679 109.169 82.679 109.166C82.679 105.521 79.7132 102.555 76.0678 102.555C76.0597 102.555 76.0518 102.556 76.0437 102.556C76.0437 102.555 76.0437 102.555 76.0437 102.554C76.0437 98.909 73.0779 95.9434 69.4325 95.9434C68.3114 95.9434 67.2551 96.2248 66.3293 96.7192L60.2839 90.674L77.3846 73.5731L80.3622 76.5508C80.7251 76.9135 81.217 77.1173 81.7298 77.1173H84.2334L76.5984 84.7523C75.4311 85.9197 74.7884 87.4719 74.7884 89.1229C74.7884 90.7738 75.4311 92.3259 76.5984 93.4932C77.7657 94.6607 79.318 95.3034 80.9689 95.3034C82.6198 95.3034 84.1721 94.6605 85.3394 93.4932L91.8152 87.0172L98.9048 87.0949L111.439 99.4635C111.908 99.9257 112.167 100.542 112.169 101.2C112.171 101.857 111.916 102.476 111.451 102.941ZM112.849 95.4188L101.066 83.7919C101.066 83.7917 101.066 83.7915 101.065 83.7913L101.048 83.7745C100.613 83.3451 100.026 83.1652 99.4626 83.2316L91.0439 83.1393C90.5219 83.1355 90.023 83.3379 89.655 83.7057L82.6038 90.7571C82.167 91.1939 81.5863 91.4343 80.9689 91.4343C80.3515 91.4343 79.7709 91.1939 79.3341 90.7571C78.8973 90.3205 78.6569 89.7399 78.6569 89.1223C78.6569 88.5047 78.8973 87.924 79.3341 87.4872L89.7045 77.1168H99.0662C99.5792 77.1168 100.071 76.913 100.434 76.5502L103.011 73.9731L118.912 89.8744L112.849 95.4188Z" fill="black"/>
<path d="M125.257 82.2122C126.323 82.2122 127.187 81.348 127.187 80.2819C127.187 79.2158 126.323 78.3516 125.257 78.3516C124.191 78.3516 123.326 79.2158 123.326 80.2819C123.326 81.348 124.191 82.2122 125.257 82.2122Z" fill="black"/>
<path d="M54.5463 82.4055C55.6124 82.4055 56.4766 81.5413 56.4766 80.4752C56.4766 79.4092 55.6124 78.5449 54.5463 78.5449C53.4802 78.5449 52.616 79.4092 52.616 80.4752C52.616 81.5413 53.4802 82.4055 54.5463 82.4055Z" fill="black"/>
<path d="M65.8425 58.3126C66.9086 58.3126 67.7728 57.4484 67.7728 56.3823C67.7728 55.3163 66.9086 54.452 65.8425 54.452C64.7764 54.452 63.9122 55.3163 63.9122 56.3823C63.9122 57.4484 64.7764 58.3126 65.8425 58.3126Z" fill="black"/>
<path d="M114.123 58.1579C115.189 58.1579 116.053 57.2936 116.053 56.2276C116.053 55.1615 115.189 54.2972 114.123 54.2972C113.057 54.2972 112.193 55.1615 112.193 56.2276C112.193 57.2936 113.057 58.1579 114.123 58.1579Z" fill="black"/>
</g>
<defs>
<clipPath id="clip0">
<rect width="99" height="99" fill="white" transform="translate(40.5 40.5)"/>
</clipPath>
</defs>
</svg>
