<svg width="180" height="180" viewBox="0 0 180 180" fill="none" xmlns="http://www.w3.org/2000/svg">
<circle cx="90" cy="90" r="89" fill="#F3F6F7" stroke="#FFA735" stroke-width="2"/>
<g clip-path="url(#clip0)">
<path d="M58.4594 75.5032C57.8473 76.1154 57.8473 77.1043 58.4594 77.7165L77.2418 96.4989C77.5468 96.8038 77.9472 96.9575 78.3485 96.9575C78.749 96.9575 79.1494 96.8038 79.4544 96.4989L87.7397 88.2143L121.067 121.542C121.372 121.847 121.773 122.001 122.174 122.001C122.575 122.001 122.975 121.847 123.28 121.542L129.541 115.281C130.153 114.669 130.153 113.68 129.541 113.068L96.213 79.7402L104.498 71.4557C105.11 70.8435 105.11 69.8546 104.498 69.2424L85.7152 50.46C85.1038 49.8478 84.114 49.8478 83.5026 50.46L75.2181 58.7445L66.9328 50.46C66.6401 50.1657 66.2426 50.0014 65.8269 50.0014C65.4104 50.0014 65.0129 50.1657 64.7202 50.46L58.4594 56.7208C57.8473 57.333 57.8473 58.3219 58.4594 58.9341L66.744 67.2186L58.4594 75.5032ZM78.3485 93.179L61.7786 76.6098L65.8269 72.5623L82.396 89.1314L78.3485 93.179ZM78.3485 60.0407L94.9176 76.6098L84.6093 86.9182L68.0394 70.349L78.3485 60.0407ZM126.222 114.175L122.174 118.222L89.9522 86.001L94.0005 81.9535L126.222 114.175ZM84.6093 53.7799L101.178 70.349L97.1309 74.3965L80.561 57.8274L84.6093 53.7799ZM61.7786 57.8274L65.8269 53.7799L73.0048 60.9578L68.9573 65.0053L61.7786 57.8274Z" fill="black"/>
<path d="M59.5659 122H97.1308C97.9959 122 98.696 121.3 98.696 120.435V111.044C98.696 110.18 97.9959 109.479 97.1308 109.479H59.5659C58.7 109.479 58.0007 110.18 58.0007 111.044V120.435C58.0007 121.3 58.7 122 59.5659 122ZM61.1311 112.609H95.5656V118.87H61.1311V112.609Z" fill="black"/>
</g>
<defs>
<clipPath id="clip0">
<rect width="72" height="72" fill="white" transform="translate(58 50)"/>
</clipPath>
</defs>
</svg>
