<svg width="180" height="180" viewBox="0 0 180 180" fill="none" xmlns="http://www.w3.org/2000/svg">
<circle cx="90" cy="90" r="89" fill="#F3F6F7" stroke="#FFA735" stroke-width="2"/>
<g clip-path="url(#clip0)">
<path d="M86.5406 53.0897H58.5511C52.0716 53.0897 46.8 58.3615 46.8 64.841V79.9363C46.8 86.416 52.0716 91.6876 58.5511 91.6876H64.5685V95.3444C60.6777 96.3073 57.7839 99.8266 57.7839 104.011V105.821C57.7839 107.919 58.5131 109.849 59.729 111.374H56.4113C51.1117 111.374 46.8 115.686 46.8 120.986V131.513C46.8 132.444 47.5555 133.2 48.4875 133.2H84.9375C85.8695 133.2 86.625 132.444 86.625 131.513V120.986C86.625 115.686 82.3133 111.374 77.0135 111.374H73.6959C74.9117 109.849 75.6409 107.919 75.6409 105.821V104.011C75.6409 100.034 73.0266 96.6571 69.4267 95.5055L73.2448 91.6876H86.5406C93.0201 91.6876 98.2917 86.416 98.2917 79.9363V64.841C98.2917 58.3615 93.0201 53.0897 86.5406 53.0897ZM77.0135 114.749C80.4523 114.749 83.25 117.547 83.25 120.986V129.825H50.175V120.986C50.175 117.547 52.9727 114.749 56.4115 114.749H65.025V118.169C65.025 119.101 65.7805 119.857 66.7125 119.857C67.6445 119.857 68.4 119.101 68.4 118.169V114.749H77.0135ZM72.2659 104.011V105.821C72.2659 108.883 69.7746 111.374 66.7125 111.374C63.6504 111.374 61.1591 108.883 61.1591 105.821V104.011C61.1591 100.949 63.6504 98.4575 66.7125 98.4575C69.7746 98.4575 72.2659 100.949 72.2659 104.011ZM94.9167 79.9363C94.9167 84.555 91.1591 88.3126 86.5406 88.3126H72.5459C72.0983 88.3126 71.669 88.4904 71.3526 88.8068L67.9435 92.2159V90.0001C67.9435 89.0682 67.188 88.3126 66.256 88.3126H58.5511C53.9326 88.3126 50.175 84.555 50.175 79.9363V64.841C50.175 60.2223 53.9326 56.4647 58.5511 56.4647H86.5406C91.1593 56.4647 94.9167 60.2223 94.9167 64.841V79.9363Z" fill="black"/>
<path d="M123.589 111.374H120.271C121.487 109.849 122.216 107.919 122.216 105.821V104.011C122.216 99.0875 118.211 95.0824 113.288 95.0824C108.364 95.0824 104.359 99.0875 104.359 104.011V105.821C104.359 107.919 105.088 109.849 106.304 111.374H102.986C97.6867 111.374 93.375 115.686 93.375 120.986V131.513C93.375 132.444 94.1305 133.2 95.0625 133.2H131.513C132.445 133.2 133.2 132.444 133.2 131.513V120.986C133.2 115.686 128.888 111.374 123.589 111.374ZM107.734 104.011C107.734 100.948 110.225 98.4574 113.288 98.4574C116.35 98.4574 118.841 100.949 118.841 104.011V105.821C118.841 108.883 116.35 111.374 113.288 111.374C110.225 111.374 107.734 108.883 107.734 105.821V104.011ZM129.825 129.825H96.75V120.986C96.75 117.547 99.5477 114.749 102.986 114.749H111.6V119.032C111.6 119.964 112.355 120.72 113.288 120.72C114.22 120.72 114.975 119.964 114.975 119.032V114.749H123.589C127.027 114.749 129.825 117.547 129.825 120.986V129.825Z" fill="black"/>
<path d="M67.9056 123.176C67.5917 122.861 67.1563 122.682 66.7125 122.682C66.2687 122.682 65.8333 122.861 65.5194 123.176C65.2056 123.49 65.025 123.924 65.025 124.369C65.025 124.813 65.2056 125.249 65.5194 125.562C65.8333 125.876 66.2687 126.057 66.7125 126.057C67.1563 126.057 67.5917 125.876 67.9056 125.562C68.2194 125.249 68.4 124.813 68.4 124.369C68.4 123.924 68.2194 123.49 67.9056 123.176Z" fill="black"/>
<path d="M121.449 46.8H93.4594C92.5274 46.8 91.7719 47.5557 91.7719 48.4875C91.7719 49.4194 92.5274 50.175 93.4594 50.175H121.449C126.067 50.175 129.825 53.9326 129.825 58.5513V73.6467C129.825 78.2653 126.067 82.0229 121.449 82.0229H113.744C112.812 82.0229 112.056 82.7786 112.056 83.7104V85.9263L108.647 82.5172C108.331 82.2008 107.902 82.0229 107.454 82.0229H103.781C102.849 82.0229 102.094 82.7786 102.094 83.7104C102.094 84.6422 102.849 85.3979 103.781 85.3979H106.755L112.551 91.1934C112.874 91.5163 113.305 91.6877 113.744 91.6877C113.962 91.6877 114.181 91.6457 114.39 91.5593C115.02 91.2981 115.431 90.6828 115.431 90.0002V85.3981H121.449C127.928 85.3981 133.2 80.1265 133.2 73.6468V58.5513C133.2 52.0716 127.928 46.8 121.449 46.8Z" fill="black"/>
<path d="M84.2634 62.1304H80.4823C79.5503 62.1304 78.7948 62.886 78.7948 63.8179C78.7948 64.6574 79.4085 65.3518 80.2116 65.4817L74.0396 71.6538L70.2935 67.9077C69.6345 67.2489 68.566 67.2489 67.907 67.9077L58.2839 77.5307C57.6249 78.1896 57.6247 79.2582 58.2839 79.9173C58.6134 80.2467 59.0453 80.4116 59.4771 80.4116C59.9089 80.4116 60.3409 80.2467 60.6703 79.9173L69.1002 71.4874L72.8462 75.2333C73.5051 75.8921 74.5736 75.8921 75.2326 75.2333L82.5992 67.8669C82.7278 68.6711 83.4229 69.2864 84.2634 69.2864C85.1954 69.2864 85.9509 68.5307 85.9509 67.5989V63.8179C85.9509 62.886 85.1954 62.1304 84.2634 62.1304Z" fill="black"/>
<path d="M111.6 72.1125H103.384C102.452 72.1125 101.697 72.8682 101.697 73.8C101.697 74.7319 102.452 75.4875 103.384 75.4875H111.6C112.532 75.4875 113.288 74.7319 113.288 73.8C113.288 72.8682 112.532 72.1125 111.6 72.1125Z" fill="black"/>
<path d="M119.881 72.607C119.567 72.2931 119.131 72.1125 118.688 72.1125C118.244 72.1125 117.808 72.2929 117.494 72.607C117.181 72.9209 117 73.3562 117 73.8C117 74.2439 117.181 74.6792 117.494 74.9929C117.808 75.3068 118.244 75.4875 118.688 75.4875C119.131 75.4875 119.567 75.307 119.881 74.9929C120.194 74.6792 120.375 74.2439 120.375 73.8C120.375 73.3562 120.194 72.9209 119.881 72.607Z" fill="black"/>
<path d="M122.4 55.9126H103.384C102.452 55.9126 101.697 56.6683 101.697 57.6001C101.697 58.5319 102.452 59.2876 103.384 59.2876H122.4C123.332 59.2876 124.088 58.5319 124.088 57.6001C124.088 56.6683 123.332 55.9126 122.4 55.9126Z" fill="black"/>
<path d="M122.4 64.0126H103.384C102.452 64.0126 101.697 64.7682 101.697 65.7001C101.697 66.6319 102.452 67.3876 103.384 67.3876H122.4C123.332 67.3876 124.088 66.6319 124.088 65.7001C124.088 64.7682 123.332 64.0126 122.4 64.0126Z" fill="black"/>
</g>
<defs>
<clipPath id="clip0">
<rect width="86.4" height="86.4" fill="white" transform="translate(46.8 46.8)"/>
</clipPath>
</defs>
</svg>
