<svg width="180" height="180" viewBox="0 0 180 180" fill="none" xmlns="http://www.w3.org/2000/svg">
<circle cx="90" cy="90" r="89" fill="#F3F6F7" stroke="#FFA735" stroke-width="2"/>
<g clip-path="url(#clip0)">
<path d="M67.1721 91.5558C55.4426 91.5558 45.9 101.098 45.9 112.828C45.9 124.557 55.4426 134.1 67.1721 134.1C78.901 134.1 88.4442 124.557 88.4442 112.828C88.4442 101.098 78.9016 91.5558 67.1721 91.5558ZM67.1721 131.516C56.8671 131.516 48.484 123.133 48.484 112.828C48.484 102.524 56.8671 94.1398 67.1721 94.1398C77.4764 94.1398 85.8602 102.524 85.8602 112.828C85.8602 123.133 77.4764 131.516 67.1721 131.516Z" fill="black"/>
<path d="M67.1722 95.8174C57.7918 95.8174 50.1609 103.448 50.1609 112.828C50.1609 122.208 57.7918 129.839 67.1722 129.839C76.5519 129.839 84.1827 122.208 84.1827 112.828C84.1827 103.448 76.5519 95.8174 67.1722 95.8174ZM67.1722 127.255C59.217 127.255 52.7449 120.783 52.7449 112.828C52.7449 104.873 59.217 98.4014 67.1722 98.4014C75.1267 98.4014 81.5988 104.873 81.5988 112.828C81.5988 120.783 75.1267 127.255 67.1722 127.255Z" fill="black"/>
<path d="M54.4728 112.828C54.4728 116.225 55.7924 119.415 58.1886 121.811L60.0156 119.984C58.1079 118.076 57.0568 115.535 57.0568 112.828H54.4728Z" fill="black"/>
<path d="M68.4641 102.607H65.8801V104.909H62.5667V114.12H69.1935V118.163H62.5667V120.747H65.8801V123.049H68.4641V120.747H71.7775V111.536H65.1507V107.493H71.7775V104.909H68.4641V102.607Z" fill="black"/>
<path d="M108.383 102.458L111.761 103.119C107.862 110.12 100.395 114.56 92.2981 114.56H91.0061V123.345H92.2981C100.592 123.345 108.395 120.109 114.271 114.233C116.988 111.516 119.145 108.37 120.692 104.867L124.912 105.693L119.448 89.7618L108.383 102.458ZM119.11 101.924L118.711 102.916C117.275 106.491 115.166 109.684 112.444 112.406C107.363 117.488 100.709 120.416 93.5901 120.732V117.11C102.738 116.631 110.993 111.09 114.859 102.721L115.55 101.228L113.271 100.782L118.456 94.8336L121.016 102.298L119.11 101.924Z" fill="black"/>
<path d="M87.702 56.6552C81.4762 56.6552 75.4557 58.503 70.2924 62.0001C65.4414 65.2846 61.6603 69.8092 59.3065 75.1327L55.088 74.3077L60.552 90.2382L71.6167 77.5424L68.2394 76.8816C72.1382 69.8806 79.6055 65.4407 87.702 65.4407H88.994V56.6552H87.702ZM65.1406 77.2786L64.4502 78.7724L66.728 79.2179L61.5446 85.1665L58.9841 77.7025L60.8891 78.0753L61.2875 77.0841C65.4824 66.6445 75.2525 59.7627 86.41 59.2681V62.8904C77.2611 63.3695 69.0072 68.9096 65.1406 77.2786Z" fill="black"/>
<path d="M134.1 53.652H132.547V48.4268H127.897V45.9H117.801L114.891 48.8104L111.981 45.9H101.885V48.4268H97.2344V53.652H95.6833V63.9973H96.7506V86.6408H107.972V84.0569H99.3345V63.9973H107.566V61.4134H98.2673V56.236H109.719V63.9973H110.125V86.6408H119.659V63.9973H120.064V56.236H131.516V61.4134H122.218V63.9973H130.448V84.0569H121.812V86.6408H133.032V63.9973H134.1V53.652ZM99.8184 53.652V51.0108H101.885V53.652H99.8184ZM104.469 53.652V52.36H109.034V49.776H104.469V48.484H110.911L113.599 51.1723V53.652H104.469ZM117.075 84.0569H112.709V63.9973H117.075V84.0569ZM117.48 61.4134H112.303V56.236H117.48V61.4134ZM116.183 53.652V51.1723L118.872 48.484H125.313V49.776H120.748V52.36H125.313V53.652H116.183ZM127.897 53.652V51.0108H129.964V53.652H127.897Z" fill="black"/>
<path d="M128.726 81.9035H126.142V74.7639H128.726V81.9035ZM128.726 73.0413H126.142V70.4573H128.726V73.0413ZM128.726 68.7346H126.142V66.1506H128.726V68.7346Z" fill="black"/>
<path d="M76.1555 121.811L74.3279 119.984C76.2362 118.076 77.2867 115.535 77.2867 112.828C77.2867 112.725 77.2853 112.622 77.2826 112.518L79.8653 112.44C79.8693 112.569 79.8706 112.699 79.8706 112.828C79.8706 116.225 78.5511 119.416 76.1555 121.811ZM77.1218 110.999C76.9845 110.247 76.7625 109.51 76.461 108.811L78.8344 107.788C79.2125 108.667 79.4918 109.592 79.6641 110.537L77.1218 110.999ZM75.7531 107.461C75.35 106.816 74.8702 106.214 74.3279 105.672L76.1555 103.844C76.8351 104.525 77.4367 105.28 77.9434 106.09L75.7531 107.461Z" fill="black"/>
</g>
<defs>
<clipPath id="clip0">
<rect width="88.2" height="88.2" fill="white" transform="translate(45.9 45.9)"/>
</clipPath>
</defs>
</svg>
